# xmcd
#
# Track frame offsets: 
#        150
#        13350
#        24965
#        36230
#        51667
#        61835
#        74742
#        85602
#        99255
#        111285
#        122437
#        137257
#        152500
#        168882
#        182730
#        197535
#        210312
#        223067
#        235632
#        249547
#        260395
#        275110
#        288357
#        302592
#        320847
#        332605
#
# Disc length: 4733 seconds
#
# Revision: 1
# Processed by: cddbd v1.5.2PL0 Copyright (c) Steve Scherf et al.
# Submitted via: ExactAudioCopy v1.3
#
DISCID=70127b1a
DTITLE=Ray Price - Ray Price And The Cherokee Cowboys_CD10
DYEAR=1995
DGENRE=Country
TTITLE0=Another Bridge To Burn
TTITLE1=A Legend In My Time
TTITLE2=Take These Chains From My Heart
TTITLE3=Don't Touch Me
TTITLE4=Go Away
TTITLE5=I'd Fight The World
TTITLE6=I Want To Hear It From You
TTITLE7=It Should Be Easier Now
TTITLE8=Don't You Believe Her
TTITLE9=Healing Hands Of Time
TTITLE10=Too Late
TTITLE11=Each Time
TTITLE12=Touch My Heart
TTITLE13=There Goes My Everything
TTITLE14=It's Only Love
TTITLE15=You Took My Happy Away
TTITLE16=I Lie A Lot
TTITLE17=Enough To Lie
TTITLE18=Swinging Doors
TTITLE19=Am I That Easy To Forget
TTITLE20=The Same Two Lips
TTITLE21=Just For The Record
TTITLE22=Touch My Heart
TTITLE23=I'm Still Not Over You
TTITLE24=I Let My Mind Wander
TTITLE25=Danny Boy
EXTD=
EXTT0=
EXTT1=
EXTT2=
EXTT3=
EXTT4=
EXTT5=
EXTT6=
EXTT7=
EXTT8=
EXTT9=
EXTT10=
EXTT11=
EXTT12=
EXTT13=
EXTT14=
EXTT15=
EXTT16=
EXTT17=
EXTT18=
EXTT19=
EXTT20=
EXTT21=
EXTT22=
EXTT23=
EXTT24=
EXTT25=
PLAYORDER=
